<svg width="45" height="56" viewBox="0 0 45 56" fill="none" xmlns="http://www.w3.org/2000/svg">
<path d="M43.6667 22.3333C43.6667 35.648 28.896 49.5147 23.936 53.7973C23.4739 54.1448 22.9115 54.3327 22.3333 54.3327C21.7552 54.3327 21.1927 54.1448 20.7307 53.7973C15.7707 49.5147 1 35.648 1 22.3333C1 16.6754 3.24761 11.2492 7.24839 7.24839C11.2492 3.24761 16.6754 1 22.3333 1C27.9913 1 33.4175 3.24761 37.4183 7.24839C41.4191 11.2492 43.6667 16.6754 43.6667 22.3333Z" stroke="black" stroke-width="2" stroke-linecap="round" stroke-linejoin="round"/>
<path d="M22.3333 30.3333C26.7516 30.3333 30.3333 26.7516 30.3333 22.3333C30.3333 17.9151 26.7516 14.3333 22.3333 14.3333C17.9151 14.3333 14.3333 17.9151 14.3333 22.3333C14.3333 26.7516 17.9151 30.3333 22.3333 30.3333Z" stroke="black" stroke-width="2" stroke-linecap="round" stroke-linejoin="round"/>
</svg>
