<svg width="152" height="63" viewBox="0 0 152 63" fill="none" xmlns="http://www.w3.org/2000/svg">
<path d="M6.72224 60.5608C4.66918 60.164 2.79623 59.5768 1.4285 57.9689C0.275298 56.6128 0.131056 55.0087 0.423127 53.342C0.781974 51.2964 1.76011 49.5098 2.88402 47.7994C5.07554 44.4672 7.81687 41.6169 10.728 38.9188C15.8636 34.1594 21.4934 30.0491 27.3318 26.2059C33.188 22.3517 39.2636 18.8796 45.518 15.7217C48.5515 14.1899 51.6355 12.7576 54.6969 11.2809C54.8959 11.185 55.0928 11.0868 55.3747 10.9493C54.5335 8.74237 53.7025 6.56036 52.8231 4.2541C53.1571 4.27673 53.3899 4.27446 53.6154 4.31034C57.8992 4.99274 62.1832 5.681 66.4672 6.36567C67.7699 6.57369 69.0739 6.77416 70.3773 6.98064C70.6985 7.03196 71.0186 7.0934 71.4902 7.17701C67.5091 12.1258 63.6199 16.9597 59.6476 21.8977C58.7733 19.98 58.1899 18.0662 57.3596 16.1903C57.1225 16.2891 56.9183 16.363 56.722 16.456C51.12 19.1109 45.6309 21.9818 40.3064 25.1573C35.1942 28.2069 30.1786 31.4087 25.4246 34.9993C21.2979 38.1161 17.2855 41.3722 13.7088 45.1255C11.6374 47.2979 9.67737 49.564 8.14562 52.1662C7.4053 53.4242 6.77415 54.7289 6.43522 56.1595C6.11372 57.5185 6.05873 58.86 6.65481 60.1683C6.69588 60.2584 6.69134 60.3697 6.72224 60.5608Z" fill="#BB2530"/>
<path d="M13.9393 53.2768C14.0177 53.3311 14.0858 53.3552 14.1194 53.4036C15.2389 55.015 16.9127 55.6528 18.7374 55.9772C21.0312 56.3856 23.3349 56.2459 25.6214 55.9157C30.76 55.1762 35.7175 53.7286 40.5705 51.9245C43.0438 51.0055 45.4798 49.9842 47.9196 48.9773C48.4518 48.7577 48.9717 48.6552 49.542 48.6552C67.3525 48.6479 85.1631 48.6332 102.974 48.6202C103.577 48.6202 104.179 48.6202 104.787 48.7227C103.755 48.8105 102.725 48.9087 101.693 48.9863C98.9714 49.1882 96.2492 49.3773 93.5275 49.5815C90.2715 49.826 87.0162 50.0852 83.7594 50.3306C81.0832 50.5319 78.4056 50.7193 75.7286 50.9184C73.0519 51.1184 70.3763 51.3278 67.6996 51.5269C65.6699 51.6784 63.6395 51.8241 61.6092 51.9691C58.9322 52.1603 56.254 52.3359 53.5787 52.5512C53.146 52.5856 52.7016 52.7342 52.3053 52.921C47.2424 55.3057 42.1192 57.541 36.791 59.2787C33.2348 60.4391 29.6367 61.4306 25.9288 61.9804C23.5756 62.3296 21.2129 62.5104 18.8434 62.1773C18.0952 62.0727 17.3433 61.8977 16.6308 61.6495C14.0499 60.7481 12.8447 58.8818 13.1419 56.1646C13.2409 55.264 13.5651 54.3876 13.7929 53.5023C13.8126 53.4241 13.8837 53.3596 13.9393 53.2768Z" fill="#5A5B5D"/>
<path d="M59.7461 27.4361C60.7895 27.3409 61.8328 27.2392 62.8761 27.1505C67.087 26.7925 71.2971 26.4351 75.5079 26.0823C77.892 25.8824 80.2774 25.697 82.6607 25.4936C84.0417 25.3758 85.4219 25.2446 86.7999 25.0945C87.0275 25.0703 87.2787 24.9634 87.4574 24.8177C92.6706 20.5739 97.6656 16.1053 101.808 10.7677C103.264 8.89047 104.589 6.92805 105.539 4.73507C105.589 4.61887 105.667 4.5149 105.808 4.2754C105.959 4.66207 106.096 4.93063 106.168 5.2156C106.445 6.32553 106.368 7.43327 106.098 8.53536C105.645 10.3825 104.78 12.0446 103.789 13.649C101.72 17.0009 99.1469 19.9465 96.3806 22.7252C94.8979 24.2143 93.3369 25.6254 91.8255 27.0854C91.4807 27.4178 91.1198 27.559 90.6329 27.5583C80.6794 27.5466 70.7268 27.5496 60.7733 27.5496H59.771C59.7629 27.5123 59.7548 27.4741 59.7461 27.4361Z" fill="#636466"/>
<path d="M71.1054 10.2566C72.1357 8.97166 73.1657 7.68644 74.2707 6.30795C72.7996 5.96674 71.3822 5.86629 69.8613 5.53981C70.1002 5.39784 70.2092 5.30543 70.3351 5.2623C76.5272 3.15132 82.8101 1.3956 89.3034 0.478899C92.0563 0.0893002 94.8225 -0.0862789 97.6019 0.0409765C99.2844 0.117929 100.94 0.373466 102.526 0.973058C103.519 1.34875 104.433 1.86113 105.167 2.64611C105.392 2.88627 105.579 3.16084 105.854 3.50951C105.601 3.52262 105.458 3.5533 105.321 3.53426C101.102 2.95078 96.9275 3.38563 92.7709 4.10625C87.8441 4.95991 83.0671 6.40006 78.3196 7.93327C76.1487 8.63397 74.0077 9.42613 71.8538 10.1767C71.6473 10.2485 71.4385 10.3145 71.2305 10.3832C71.1888 10.3409 71.1471 10.2991 71.1054 10.2566Z" fill="#636466"/>
<path d="M34.5365 34.6905C34.2024 34.6905 33.9118 34.7523 33.6649 34.8757C33.4252 34.9992 33.2218 35.1881 33.0547 35.4423C32.8949 35.6966 32.7751 36.0234 32.6952 36.4229C32.6225 36.8224 32.5862 37.2982 32.5862 37.8503C32.5862 38.4169 32.6261 38.9035 32.706 39.3103C32.786 39.7098 32.9094 40.0367 33.0765 40.2909C33.2508 40.5379 33.4651 40.7195 33.7194 40.8357C33.9809 40.9519 34.2932 41.01 34.6564 41.01C35.1067 41.01 35.4808 40.9265 35.7786 40.7594C36.0765 40.5851 36.3162 40.3454 36.4978 40.0403C36.6866 39.728 36.8392 39.3684 36.9554 38.9616L37.7835 39.3539C37.6309 39.8914 37.413 40.3563 37.1297 40.7485C36.8464 41.1335 36.4832 41.4313 36.0401 41.642C35.5971 41.8454 35.0595 41.9471 34.4276 41.9471C33.8392 41.9471 33.3053 41.8635 32.8259 41.6965C32.3465 41.5221 31.9325 41.2606 31.5838 40.912C31.2424 40.5633 30.9773 40.1347 30.7884 39.6263C30.6068 39.1178 30.516 38.5258 30.516 37.8503C30.516 37.1602 30.6104 36.5609 30.7993 36.0525C30.9882 35.5367 31.2533 35.1118 31.5947 34.7777C31.9361 34.4363 32.3356 34.182 32.7932 34.015C33.2581 33.8406 33.7593 33.7535 34.2968 33.7535C34.8344 33.7535 35.2847 33.8552 35.6479 34.0586C36.0111 34.2619 36.298 34.5525 36.5087 34.9302C36.7266 35.3079 36.8719 35.7619 36.9445 36.2922L36.5413 35.8455L36.7484 33.8951H37.6636V36.6408H36.5849C36.476 36.2413 36.3307 35.8963 36.1491 35.6058C35.9675 35.3152 35.746 35.09 35.4845 34.9302C35.223 34.7704 34.907 34.6905 34.5365 34.6905ZM45.4181 39.2558V41.7183H38.7717V40.8575H38.8915C39.0876 40.8575 39.2511 40.8321 39.3818 40.7812C39.5126 40.7304 39.5779 40.6251 39.5779 40.4653V35.2353C39.5779 35.0755 39.5126 34.9702 39.3818 34.9193C39.2511 34.8685 39.0876 34.8431 38.8915 34.8431H38.7717V33.9823H45.2001V36.1723H44.2304L44.1215 35.3552C44.0997 35.2244 44.0452 35.1263 43.958 35.061C43.8709 34.9883 43.7437 34.9375 43.5767 34.9084C43.4169 34.8794 43.2171 34.8648 42.9774 34.8648H41.5501V40.8357H42.9992C43.2171 40.8357 43.4023 40.8284 43.5549 40.8139C43.7074 40.7994 43.8345 40.774 43.9362 40.7376C44.0379 40.7013 44.1142 40.6505 44.165 40.5851C44.2159 40.5197 44.2486 40.4398 44.2631 40.3454L44.4265 39.2558H45.4181ZM41.343 37.3491C41.6627 37.3273 41.9786 37.3055 42.291 37.2837C42.6106 37.2619 42.9266 37.2401 43.2389 37.2183C43.5585 37.1893 43.8745 37.1675 44.1868 37.1529V38.3297C43.8745 38.3079 43.5621 38.2861 43.2498 38.2643C42.9375 38.2425 42.6215 38.2207 42.3019 38.1989C41.9823 38.1771 41.6627 38.159 41.343 38.1445V37.3491ZM46.4755 41.7183V40.8575H46.5845C46.7225 40.8575 46.8424 40.8466 46.9441 40.8248C47.0457 40.7958 47.1257 40.7522 47.1838 40.6941C47.2419 40.6287 47.2709 40.5452 47.2709 40.4435V35.2353C47.2709 35.1263 47.2419 35.0464 47.1838 34.9956C47.1257 34.9375 47.0457 34.8975 46.9441 34.8757C46.8424 34.8539 46.7225 34.8431 46.5845 34.8431H46.4755V33.9823H49.8314L52.9803 40.0839L52.7733 40.073V34.9738C52.7733 34.9447 52.7333 34.923 52.6534 34.9084C52.5808 34.8866 52.49 34.8721 52.381 34.8648C52.2793 34.8503 52.1813 34.8431 52.0868 34.8431H51.9452V33.9823H54.5057V34.8431H54.3967C54.2733 34.8431 54.157 34.8539 54.0481 34.8757C53.9464 34.8975 53.8665 34.9338 53.8084 34.9847C53.7503 35.0283 53.7212 35.1045 53.7212 35.2135V41.7183H51.6946L47.9465 34.4508L48.2189 34.5489V40.7376C48.2189 40.7522 48.2552 40.7703 48.3278 40.7921C48.4077 40.8139 48.4985 40.8321 48.6002 40.8466C48.7092 40.8539 48.8109 40.8575 48.9053 40.8575H49.0469V41.7183H46.4755ZM58.0723 40.4653V34.8866H57.7345C57.4294 34.8866 57.1861 34.9048 57.0045 34.9411C56.8301 34.9774 56.703 35.0355 56.6231 35.1154C56.5505 35.1953 56.5069 35.3007 56.4924 35.4314L56.3725 36.9023H55.3701V33.9823H62.7465V36.9023H61.755L61.6352 35.4314C61.6206 35.3007 61.5734 35.1953 61.4935 35.1154C61.4136 35.0355 61.2865 34.9774 61.1122 34.9411C60.9378 34.9048 60.6981 34.8866 60.3931 34.8866H60.0553V40.4653C60.0553 40.6251 60.1243 40.7304 60.2623 40.7812C60.4003 40.8321 60.571 40.8575 60.7744 40.8575H60.9705V41.7183H57.157V40.8575H57.3531C57.5493 40.8575 57.7163 40.8321 57.8543 40.7812C57.9996 40.7304 58.0723 40.6251 58.0723 40.4653ZM67.4079 38.2316L69.173 37.7522L70.5349 40.28C70.6221 40.4326 70.7093 40.5524 70.7964 40.6396C70.8836 40.7267 70.978 40.7849 71.0797 40.8139C71.1814 40.843 71.294 40.8575 71.4175 40.8575H71.5156V41.7183H69.0858L67.4079 38.2316ZM66.4272 40.7485C66.4272 40.7703 66.4454 40.7885 66.4817 40.803C66.5253 40.8103 66.5798 40.8212 66.6452 40.8357C66.7105 40.843 66.7868 40.8502 66.874 40.8575C66.9611 40.8575 67.0519 40.8575 67.1464 40.8575H67.2989V41.7183H63.6488V40.8575H63.7687C63.9648 40.8575 64.1282 40.8321 64.259 40.7812C64.3897 40.7304 64.4551 40.6251 64.4551 40.4653V35.2353C64.4551 35.0755 64.3897 34.9702 64.259 34.9193C64.1282 34.8685 63.9648 34.8431 63.7687 34.8431H63.6488V33.9823H67.9527C68.5628 33.9823 69.0785 34.0622 69.4998 34.222C69.9284 34.3745 70.2517 34.607 70.4696 34.9193C70.6947 35.2317 70.8073 35.6203 70.8073 36.0852C70.8073 36.4847 70.7129 36.837 70.524 37.1421C70.3425 37.4399 70.0773 37.6868 69.7287 37.883C69.38 38.0718 68.9551 38.2062 68.4539 38.2861C68.403 38.3297 68.3594 38.3696 68.3231 38.406C68.2868 38.435 68.2541 38.4641 68.225 38.4931C68.2033 38.5222 68.1706 38.5476 68.127 38.5694H66.1549V37.7304H67.5604C67.8437 37.7304 68.0725 37.6687 68.2468 37.5452C68.4212 37.4217 68.5483 37.2474 68.6282 37.0222C68.7154 36.7898 68.7589 36.5137 68.7589 36.1941C68.7589 35.8963 68.719 35.6493 68.6391 35.4532C68.5592 35.2498 68.4357 35.0973 68.2686 34.9956C68.1016 34.8939 67.8873 34.8431 67.6258 34.8431H66.4272V40.7485ZM73.9977 38.504H76.9831L77.092 39.3103H73.8996L73.9977 38.504ZM75.3814 34.5707L75.6102 34.7123L73.7797 40.6178C73.7797 40.6614 73.8088 40.7013 73.8669 40.7376C73.925 40.774 74.0086 40.803 74.1175 40.8248C74.2265 40.8466 74.3645 40.8575 74.5316 40.8575H74.6296V41.7183H72.1345V40.8575H72.1999C72.3742 40.8575 72.5231 40.8139 72.6466 40.7267C72.7701 40.6396 72.8681 40.4689 72.9408 40.2146L74.9238 33.9169H77.1356L79.1404 40.2473C79.2203 40.487 79.3184 40.6505 79.4346 40.7376C79.5581 40.8175 79.7107 40.8575 79.8923 40.8575H79.9467V41.7183H76.3947V40.8575H76.5146C76.6744 40.8575 76.8088 40.8539 76.9177 40.8466C77.0339 40.8321 77.1211 40.8175 77.1792 40.803C77.2373 40.7812 77.2664 40.7594 77.2664 40.7376L75.3814 34.5707ZM80.6309 34.8431V33.9823H84.6187C85.2289 33.9823 85.7845 34.0622 86.2858 34.222C86.787 34.3745 87.2155 34.6106 87.5715 34.9302C87.9346 35.2426 88.2107 35.6384 88.3995 36.1179C88.5957 36.5973 88.6937 37.1602 88.6937 37.8067C88.6937 38.4532 88.5957 39.0234 88.3995 39.5173C88.2107 40.004 87.9346 40.4108 87.5715 40.7376C87.2155 41.0645 86.787 41.3115 86.2858 41.4786C85.7845 41.6384 85.2289 41.7183 84.6187 41.7183H80.6309V40.8575H80.7616C80.9505 40.8575 81.1103 40.8321 81.241 40.7812C81.3718 40.7304 81.4372 40.6251 81.4372 40.4653V35.2353C81.4372 35.0828 81.3718 34.9811 81.241 34.9302C81.1103 34.8721 80.9505 34.8431 80.7616 34.8431H80.6309ZM84.4226 34.8757H83.4093V40.8248H84.4226C84.793 40.8248 85.1126 40.7667 85.3814 40.6505C85.6574 40.527 85.8862 40.3418 86.0678 40.0948C86.2494 39.8478 86.3874 39.5355 86.4819 39.1578C86.5763 38.7728 86.6235 38.3224 86.6235 37.8067C86.6235 37.2982 86.5763 36.8588 86.4819 36.4883C86.3874 36.1106 86.2494 35.8055 86.0678 35.5731C85.8862 35.3334 85.6574 35.159 85.3814 35.0501C85.1126 34.9338 84.793 34.8757 84.4226 34.8757ZM96.3003 39.2558V41.7183H89.6539V40.8575H89.7738C89.9699 40.8575 90.1333 40.8321 90.2641 40.7812C90.3948 40.7304 90.4602 40.6251 90.4602 40.4653V35.2353C90.4602 35.0755 90.3948 34.9702 90.2641 34.9193C90.1333 34.8685 89.9699 34.8431 89.7738 34.8431H89.6539V33.9823H96.0824V36.1723H95.1127L95.0037 35.3552C94.9819 35.2244 94.9274 35.1263 94.8403 35.061C94.7531 34.9883 94.626 34.9375 94.4589 34.9084C94.2991 34.8794 94.0994 34.8648 93.8597 34.8648H92.4323V40.8357H93.8814C94.0994 40.8357 94.2846 40.8284 94.4371 40.8139C94.5897 40.7994 94.7168 40.774 94.8185 40.7376C94.9202 40.7013 94.9964 40.6505 95.0473 40.5851C95.0981 40.5197 95.1308 40.4398 95.1454 40.3454L95.3088 39.2558H96.3003ZM92.2253 37.3491C92.5449 37.3273 92.8609 37.3055 93.1732 37.2837C93.4928 37.2619 93.8088 37.2401 94.1212 37.2183C94.4408 37.1893 94.7567 37.1675 95.0691 37.1529V38.3297C94.7567 38.3079 94.4444 38.2861 94.132 38.2643C93.8197 38.2425 93.5037 38.2207 93.1841 38.1989C92.8645 38.1771 92.5449 38.159 92.2253 38.1445V37.3491ZM103.957 33.9823V34.8431H103.761C103.536 34.8431 103.35 34.8685 103.205 34.9193C103.067 34.9702 102.998 35.0755 102.998 35.2353V40.8357H104.338C104.629 40.8357 104.865 40.8248 105.047 40.803C105.228 40.774 105.363 40.7231 105.45 40.6505C105.537 40.5778 105.588 40.4761 105.602 40.3454L105.766 38.929H106.757V41.7183H100.22V40.8575H100.34C100.536 40.8575 100.699 40.8321 100.83 40.7812C100.961 40.7304 101.026 40.6251 101.026 40.4653V35.2353C101.026 35.0755 100.961 34.9702 100.83 34.9193C100.699 34.8685 100.536 34.8431 100.34 34.8431H100.22V33.9823H103.957ZM109.333 41.9035C108.963 41.9035 108.665 41.8054 108.44 41.6093C108.222 41.4132 108.113 41.1372 108.113 40.7812C108.113 40.418 108.222 40.1384 108.44 39.9423C108.665 39.7461 108.963 39.6481 109.333 39.6481C109.711 39.6481 110.009 39.7461 110.227 39.9423C110.452 40.1384 110.564 40.418 110.564 40.7812C110.564 41.1372 110.452 41.4132 110.227 41.6093C110.009 41.8054 109.711 41.9035 109.333 41.9035ZM115.576 33.9823V34.8431H115.38C115.155 34.8431 114.97 34.8685 114.825 34.9193C114.686 34.9702 114.617 35.0755 114.617 35.2353V40.8357H115.958C116.248 40.8357 116.484 40.8248 116.666 40.803C116.847 40.774 116.982 40.7231 117.069 40.6505C117.156 40.5778 117.207 40.4761 117.222 40.3454L117.385 38.929H118.377V41.7183H111.839V40.8575H111.959C112.155 40.8575 112.318 40.8321 112.449 40.7812C112.58 40.7304 112.645 40.6251 112.645 40.4653V35.2353C112.645 35.0755 112.58 34.9702 112.449 34.9193C112.318 34.8685 112.155 34.8431 111.959 34.8431H111.839V33.9823H115.576ZM120.952 41.9035C120.582 41.9035 120.284 41.8054 120.059 41.6093C119.841 41.4132 119.732 41.1372 119.732 40.7812C119.732 40.418 119.841 40.1384 120.059 39.9423C120.284 39.7461 120.582 39.6481 120.952 39.6481C121.33 39.6481 121.628 39.7461 121.846 39.9423C122.071 40.1384 122.184 40.418 122.184 40.7812C122.184 41.1372 122.071 41.4132 121.846 41.6093C121.628 41.8054 121.33 41.9035 120.952 41.9035ZM126.937 34.6905C126.603 34.6905 126.313 34.7523 126.066 34.8757C125.826 34.9992 125.623 35.1881 125.456 35.4423C125.296 35.6966 125.176 36.0234 125.096 36.4229C125.023 36.8224 124.987 37.2982 124.987 37.8503C124.987 38.4169 125.027 38.9035 125.107 39.3103C125.187 39.7098 125.31 40.0367 125.477 40.2909C125.652 40.5379 125.866 40.7195 126.12 40.8357C126.382 40.9519 126.694 41.01 127.057 41.01C127.508 41.01 127.882 40.9265 128.18 40.7594C128.477 40.5851 128.717 40.3454 128.899 40.0403C129.088 39.728 129.24 39.3684 129.356 38.9616L130.184 39.3539C130.032 39.8914 129.814 40.3563 129.531 40.7485C129.247 41.1335 128.884 41.4313 128.441 41.642C127.998 41.8454 127.46 41.9471 126.829 41.9471C126.24 41.9471 125.706 41.8635 125.227 41.6965C124.747 41.5221 124.333 41.2606 123.985 40.912C123.643 40.5633 123.378 40.1347 123.189 39.6263C123.008 39.1178 122.917 38.5258 122.917 37.8503C122.917 37.1602 123.011 36.5609 123.2 36.0525C123.389 35.5367 123.654 35.1118 123.996 34.7777C124.337 34.4363 124.737 34.182 125.194 34.015C125.659 33.8406 126.16 33.7535 126.698 33.7535C127.235 33.7535 127.686 33.8552 128.049 34.0586C128.412 34.2619 128.699 34.5525 128.91 34.9302C129.128 35.3079 129.273 35.7619 129.345 36.2922L128.942 35.8455L129.149 33.8951H130.065V36.6408H128.986C128.877 36.2413 128.732 35.8963 128.55 35.6058C128.368 35.3152 128.147 35.09 127.885 34.9302C127.624 34.7704 127.308 34.6905 126.937 34.6905ZM131.638 37.8612H135.539V39.2667H131.638V37.8612ZM139.58 34.8648V40.6723C139.58 40.7159 139.602 40.7485 139.645 40.7703C139.696 40.7921 139.758 40.8103 139.83 40.8248C139.91 40.8321 139.997 40.8393 140.092 40.8466C140.186 40.8539 140.288 40.8575 140.397 40.8575H140.604V41.7183H136.801V40.8575H136.921C137.117 40.8575 137.281 40.8321 137.412 40.7812C137.542 40.7304 137.608 40.6251 137.608 40.4653V35.2353C137.608 35.0755 137.542 34.9702 137.412 34.9193C137.281 34.8685 137.117 34.8431 136.921 34.8431H136.801V33.9823H143.241V36.1832H142.271L142.162 35.3552C142.148 35.2244 142.093 35.1263 141.999 35.061C141.911 34.9883 141.784 34.9375 141.617 34.9084C141.457 34.8794 141.258 34.8648 141.018 34.8648H139.58ZM139.373 37.5016C139.692 37.4726 140.012 37.4471 140.332 37.4253C140.651 37.4035 140.971 37.3818 141.29 37.36C141.61 37.3382 141.926 37.3164 142.238 37.2946V38.4822C141.926 38.4532 141.61 38.4314 141.29 38.4169C140.971 38.3951 140.651 38.3733 140.332 38.3515C140.012 38.3297 139.692 38.3079 139.373 38.2861V37.5016ZM146.53 34.8757C146.348 34.8757 146.189 34.883 146.05 34.8975C145.912 34.9048 145.793 34.9266 145.691 34.9629C145.597 34.9992 145.524 35.0464 145.473 35.1045C145.429 35.1627 145.4 35.2426 145.386 35.3443L145.277 36.4338H144.296V33.9823H150.42V35.268L145.626 41.3478L145.31 40.8248H148.164C148.462 40.8248 148.702 40.8139 148.883 40.7921C149.065 40.7631 149.199 40.7159 149.287 40.6505C149.374 40.5851 149.425 40.487 149.439 40.3563L149.603 38.9725H150.594V41.7183H144.122V40.389L148.774 34.4835L149.069 34.8757H146.53Z" fill="#5A5B5D"/>
</svg>
