<svg width="48" height="48" viewBox="0 0 48 48" fill="none" xmlns="http://www.w3.org/2000/svg">
<path d="M29.894 9.89429C31.7369 10.2538 33.5663 11.0666 34.894 12.3943C36.2217 13.722 37.0345 15.5514 37.394 17.3943M31.144 1.14429C34.9728 1.56964 38.4183 3.42196 41.144 6.14429C43.8698 8.86661 45.7138 12.316 46.144 16.1443M46.1426 34.836V41.6104C46.1532 44.2 43.8247 46.3625 41.2101 46.1267C18.6442 46.1443 1.14417 28.4818 1.16183 6.06725C0.926353 3.46666 3.07811 1.14694 5.66444 1.14451H12.4523C13.5503 1.13372 14.6149 1.52179 15.4475 2.23639C17.8145 4.26802 19.337 11.1637 18.7512 13.905C18.2939 16.0452 16.1364 17.5425 14.6697 19.0064C17.8906 24.6597 22.5808 29.3406 28.2454 32.5552C29.7121 31.0914 31.2124 28.9382 33.3569 28.4818C36.1078 27.8962 43.0479 29.4209 45.0714 31.8044C45.7889 32.6496 46.1702 33.7285 46.1426 34.836Z" stroke="black" stroke-width="2.28814" stroke-linecap="round" stroke-linejoin="round"/>
</svg>
